<svg xmlns="http://www.w3.org/2000/svg" viewBox="0 0 190 190" width="190" height="190" role="img">
  <defs><mask id="imagine-text-gaps-bx2v4y" maskUnits="userSpaceOnUse"><rect x="0" y="0" width="680" height="1100" fill="white"/><rect x="54.84375" y="104.375" width="78.3125" height="21.375" fill="black" rx="2"/><rect x="55.390625" y="127.109375" width="77.21875" height="17.890625" fill="black" rx="2"/><rect x="62.59375" y="132.375" width="62.8125" height="21.375" fill="black" rx="2"/><rect x="51.703125" y="153.109375" width="84.59375" height="17.890625" fill="black" rx="2"/><rect x="48.015625" y="149.375" width="87.96875" height="21.375" fill="black" rx="2"/><rect x="48.890625" y="171.328125" width="86.21875" height="16.421875" fill="black" rx="2"/><rect x="47.03125" y="116.375" width="93.9375" height="21.375" fill="black" rx="2"/><rect x="55.90625" y="137.109375" width="76.1875" height="17.890625" fill="black" rx="2"/><rect x="46.546875" y="136.375" width="94.90625" height="21.375" fill="black" rx="2"/><rect x="47.234375" y="157.109375" width="93.53125" height="17.890625" fill="black" rx="2"/><rect x="29.640625" y="112.078125" width="124.71875" height="21.375" fill="black" rx="2"/><rect x="23.28125" y="134.859375" width="137.4375" height="17.90625" fill="black" rx="2"/><rect x="37.078125" y="120.328125" width="113.84375" height="19.90625" fill="black" rx="2"/><rect x="32.8125" y="141.109375" width="122.375" height="16.421875" fill="black" rx="2"/><rect x="42.546875" y="125.328125" width="102.90625" height="19.90625" fill="black" rx="2"/><rect x="38.625" y="146.109375" width="110.75" height="16.421875" fill="black" rx="2"/><rect x="21.9375" y="115.328125" width="144.125" height="19.90625" fill="black" rx="2"/><rect x="26.40625" y="138.109375" width="135.1875" height="16.421875" fill="black" rx="2"/><rect x="40.203125" y="140.328125" width="107.59375" height="19.90625" fill="black" rx="2"/><rect x="25.78125" y="161.109375" width="136.4375" height="16.421875" fill="black" rx="2"/><rect x="42.15625" y="123.328125" width="103.6875" height="19.90625" fill="black" rx="2"/><rect x="37.71875" y="144.109375" width="112.5625" height="16.421875" fill="black" rx="2"/><rect x="46.421875" y="105.328125" width="95.15625" height="19.90625" fill="black" rx="2"/><rect x="38.953125" y="128.109375" width="110.09375" height="16.421875" fill="black" rx="2"/><rect x="80" y="50.15625" width="28" height="26.84375" fill="black" rx="2"/><rect x="70.984375" y="74.640625" width="46.03125" height="14.4375" fill="black" rx="2"/><rect x="50.25" y="144.09375" width="87.5" height="18.90625" fill="black" rx="2"/><rect x="38.859375" y="162.875" width="110.28125" height="15.4375" fill="black" rx="2"/><rect x="40.140625" y="124.09375" width="107.71875" height="18.90625" fill="black" rx="2"/><rect x="46.359375" y="144.875" width="95.28125" height="15.4375" fill="black" rx="2"/><rect x="40.15625" y="118.09375" width="107.6875" height="18.90625" fill="black" rx="2"/><rect x="35.796875" y="138.875" width="116.40625" height="15.4375" fill="black" rx="2"/></mask></defs>
  <g>
<circle cx="94" cy="94" r="88" fill="#f5f0ff" stroke="#4a1080" stroke-width="3.5" style="fill:rgb(245, 240, 255);stroke:rgb(74, 16, 128);color:rgb(255, 255, 255);stroke-width:3.5px;stroke-linecap:butt;stroke-linejoin:miter;opacity:1;font-family:&quot;Anthropic Sans&quot;, -apple-system, BlinkMacSystemFont, &quot;Segoe UI&quot;, sans-serif;font-size:16px;font-weight:400;text-anchor:start;dominant-baseline:auto"/>
    <path d="M70,55 Q100,45 118,65 Q90,62 80,90 Q60,75 70,55Z" fill="#d4c0f0" stroke="#4a1080" stroke-width="1.5" style="fill:rgb(212, 192, 240);stroke:rgb(74, 16, 128);color:rgb(255, 255, 255);stroke-width:1.5px;stroke-linecap:butt;stroke-linejoin:miter;opacity:1;font-family:&quot;Anthropic Sans&quot;, -apple-system, BlinkMacSystemFont, &quot;Segoe UI&quot;, sans-serif;font-size:16px;font-weight:400;text-anchor:start;dominant-baseline:auto"/>
    <!-- bat -->
    <ellipse cx="94" cy="100" rx="10" ry="8" fill="#2a0a3a" style="fill:rgb(42, 10, 58);stroke:none;color:rgb(255, 255, 255);stroke-width:1px;stroke-linecap:butt;stroke-linejoin:miter;opacity:1;font-family:&quot;Anthropic Sans&quot;, -apple-system, BlinkMacSystemFont, &quot;Segoe UI&quot;, sans-serif;font-size:16px;font-weight:400;text-anchor:start;dominant-baseline:auto"/>
    <path d="M84,100 Q70,88 58,95 Q68,96 72,102Z" fill="#2a0a3a" style="fill:rgb(42, 10, 58);stroke:none;color:rgb(255, 255, 255);stroke-width:1px;stroke-linecap:butt;stroke-linejoin:miter;opacity:1;font-family:&quot;Anthropic Sans&quot;, -apple-system, BlinkMacSystemFont, &quot;Segoe UI&quot;, sans-serif;font-size:16px;font-weight:400;text-anchor:start;dominant-baseline:auto"/>
    <path d="M104,100 Q118,88 130,95 Q120,96 116,102Z" fill="#2a0a3a" style="fill:rgb(42, 10, 58);stroke:none;color:rgb(255, 255, 255);stroke-width:1px;stroke-linecap:butt;stroke-linejoin:miter;opacity:1;font-family:&quot;Anthropic Sans&quot;, -apple-system, BlinkMacSystemFont, &quot;Segoe UI&quot;, sans-serif;font-size:16px;font-weight:400;text-anchor:start;dominant-baseline:auto"/>
    <path d="M72,102 Q68,110 74,112Z" fill="#2a0a3a" style="fill:rgb(42, 10, 58);stroke:none;color:rgb(255, 255, 255);stroke-width:1px;stroke-linecap:butt;stroke-linejoin:miter;opacity:1;font-family:&quot;Anthropic Sans&quot;, -apple-system, BlinkMacSystemFont, &quot;Segoe UI&quot;, sans-serif;font-size:16px;font-weight:400;text-anchor:start;dominant-baseline:auto"/>
    <path d="M116,102 Q120,110 114,112Z" fill="#2a0a3a" style="fill:rgb(42, 10, 58);stroke:none;color:rgb(255, 255, 255);stroke-width:1px;stroke-linecap:butt;stroke-linejoin:miter;opacity:1;font-family:&quot;Anthropic Sans&quot;, -apple-system, BlinkMacSystemFont, &quot;Segoe UI&quot;, sans-serif;font-size:16px;font-weight:400;text-anchor:start;dominant-baseline:auto"/>
    <ellipse cx="90" cy="98" rx="2" ry="2" fill="#ff2200" style="fill:rgb(255, 34, 0);stroke:none;color:rgb(255, 255, 255);stroke-width:1px;stroke-linecap:butt;stroke-linejoin:miter;opacity:1;font-family:&quot;Anthropic Sans&quot;, -apple-system, BlinkMacSystemFont, &quot;Segoe UI&quot;, sans-serif;font-size:16px;font-weight:400;text-anchor:start;dominant-baseline:auto"/>
    <ellipse cx="98" cy="98" rx="2" ry="2" fill="#ff2200" style="fill:rgb(255, 34, 0);stroke:none;color:rgb(255, 255, 255);stroke-width:1px;stroke-linecap:butt;stroke-linejoin:miter;opacity:1;font-family:&quot;Anthropic Sans&quot;, -apple-system, BlinkMacSystemFont, &quot;Segoe UI&quot;, sans-serif;font-size:16px;font-weight:400;text-anchor:start;dominant-baseline:auto"/>
    <text x="94" y="132" text-anchor="middle" font-family="serif" font-size="15" fill="#4a1080" font-weight="bold" style="fill:rgb(74, 16, 128);stroke:none;color:rgb(255, 255, 255);stroke-width:1px;stroke-linecap:butt;stroke-linejoin:miter;opacity:1;font-family:serif;font-size:15px;font-weight:700;text-anchor:middle;dominant-baseline:auto">कलम में जादू है!</text>
    <text x="94" y="150" text-anchor="middle" font-family="serif" font-size="12" fill="#2a0050" style="fill:rgb(42, 0, 80);stroke:none;color:rgb(255, 255, 255);stroke-width:1px;stroke-linecap:butt;stroke-linejoin:miter;opacity:1;font-family:serif;font-size:12px;font-weight:400;text-anchor:middle;dominant-baseline:auto">रात भर पढ़ता रहा</text>
  </g>
</svg>
