<svg xmlns="http://www.w3.org/2000/svg" viewBox="0 0 190 190" width="190" height="190" role="img">
  <defs><mask id="imagine-text-gaps-bx2v4y" maskUnits="userSpaceOnUse"><rect x="0" y="0" width="680" height="1100" fill="white"/><rect x="54.84375" y="104.375" width="78.3125" height="21.375" fill="black" rx="2"/><rect x="55.390625" y="127.109375" width="77.21875" height="17.890625" fill="black" rx="2"/><rect x="62.59375" y="132.375" width="62.8125" height="21.375" fill="black" rx="2"/><rect x="51.703125" y="153.109375" width="84.59375" height="17.890625" fill="black" rx="2"/><rect x="48.015625" y="149.375" width="87.96875" height="21.375" fill="black" rx="2"/><rect x="48.890625" y="171.328125" width="86.21875" height="16.421875" fill="black" rx="2"/><rect x="47.03125" y="116.375" width="93.9375" height="21.375" fill="black" rx="2"/><rect x="55.90625" y="137.109375" width="76.1875" height="17.890625" fill="black" rx="2"/><rect x="46.546875" y="136.375" width="94.90625" height="21.375" fill="black" rx="2"/><rect x="47.234375" y="157.109375" width="93.53125" height="17.890625" fill="black" rx="2"/><rect x="29.640625" y="112.078125" width="124.71875" height="21.375" fill="black" rx="2"/><rect x="23.28125" y="134.859375" width="137.4375" height="17.90625" fill="black" rx="2"/><rect x="37.078125" y="120.328125" width="113.84375" height="19.90625" fill="black" rx="2"/><rect x="32.8125" y="141.109375" width="122.375" height="16.421875" fill="black" rx="2"/><rect x="42.546875" y="125.328125" width="102.90625" height="19.90625" fill="black" rx="2"/><rect x="38.625" y="146.109375" width="110.75" height="16.421875" fill="black" rx="2"/><rect x="21.9375" y="115.328125" width="144.125" height="19.90625" fill="black" rx="2"/><rect x="26.40625" y="138.109375" width="135.1875" height="16.421875" fill="black" rx="2"/><rect x="40.203125" y="140.328125" width="107.59375" height="19.90625" fill="black" rx="2"/><rect x="25.78125" y="161.109375" width="136.4375" height="16.421875" fill="black" rx="2"/><rect x="42.15625" y="123.328125" width="103.6875" height="19.90625" fill="black" rx="2"/><rect x="37.71875" y="144.109375" width="112.5625" height="16.421875" fill="black" rx="2"/><rect x="46.421875" y="105.328125" width="95.15625" height="19.90625" fill="black" rx="2"/><rect x="38.953125" y="128.109375" width="110.09375" height="16.421875" fill="black" rx="2"/><rect x="80" y="50.15625" width="28" height="26.84375" fill="black" rx="2"/><rect x="70.984375" y="74.640625" width="46.03125" height="14.4375" fill="black" rx="2"/><rect x="50.25" y="144.09375" width="87.5" height="18.90625" fill="black" rx="2"/><rect x="38.859375" y="162.875" width="110.28125" height="15.4375" fill="black" rx="2"/><rect x="40.140625" y="124.09375" width="107.71875" height="18.90625" fill="black" rx="2"/><rect x="46.359375" y="144.875" width="95.28125" height="15.4375" fill="black" rx="2"/><rect x="40.15625" y="118.09375" width="107.6875" height="18.90625" fill="black" rx="2"/><rect x="35.796875" y="138.875" width="116.40625" height="15.4375" fill="black" rx="2"/></mask></defs>
  <g>
<rect x="4" y="4" width="180" height="180" rx="18" fill="#f5fff5" stroke="#1a5c1a" stroke-width="3.5" style="fill:rgb(245, 255, 245);stroke:rgb(26, 92, 26);color:rgb(255, 255, 255);stroke-width:3.5px;stroke-linecap:butt;stroke-linejoin:miter;opacity:1;font-family:&quot;Anthropic Sans&quot;, -apple-system, BlinkMacSystemFont, &quot;Segoe UI&quot;, sans-serif;font-size:16px;font-weight:400;text-anchor:start;dominant-baseline:auto"/>
    <!-- web -->
    <line x1="92" y1="40" x2="92" y2="105" stroke="#4a7a4a" stroke-width="1" mask="url(#imagine-text-gaps-bx2v4y)" style="fill:rgb(0, 0, 0);stroke:rgb(74, 122, 74);color:rgb(255, 255, 255);stroke-width:1px;stroke-linecap:butt;stroke-linejoin:miter;opacity:1;font-family:&quot;Anthropic Sans&quot;, -apple-system, BlinkMacSystemFont, &quot;Segoe UI&quot;, sans-serif;font-size:16px;font-weight:400;text-anchor:start;dominant-baseline:auto"/>
    <line x1="40" y1="70" x2="144" y2="100" stroke="#4a7a4a" stroke-width="1" mask="url(#imagine-text-gaps-bx2v4y)" style="fill:rgb(0, 0, 0);stroke:rgb(74, 122, 74);color:rgb(255, 255, 255);stroke-width:1px;stroke-linecap:butt;stroke-linejoin:miter;opacity:1;font-family:&quot;Anthropic Sans&quot;, -apple-system, BlinkMacSystemFont, &quot;Segoe UI&quot;, sans-serif;font-size:16px;font-weight:400;text-anchor:start;dominant-baseline:auto"/>
    <line x1="40" y1="110" x2="144" y2="80" stroke="#4a7a4a" stroke-width="1" mask="url(#imagine-text-gaps-bx2v4y)" style="fill:rgb(0, 0, 0);stroke:rgb(74, 122, 74);color:rgb(255, 255, 255);stroke-width:1px;stroke-linecap:butt;stroke-linejoin:miter;opacity:1;font-family:&quot;Anthropic Sans&quot;, -apple-system, BlinkMacSystemFont, &quot;Segoe UI&quot;, sans-serif;font-size:16px;font-weight:400;text-anchor:start;dominant-baseline:auto"/>
    <path d="M92,55 Q108,62 112,78 Q108,94 92,100 Q76,94 72,78 Q76,62 92,55Z" fill="none" stroke="#4a7a4a" stroke-width="1" mask="url(#imagine-text-gaps-bx2v4y)" style="fill:none;stroke:rgb(74, 122, 74);color:rgb(255, 255, 255);stroke-width:1px;stroke-linecap:butt;stroke-linejoin:miter;opacity:1;font-family:&quot;Anthropic Sans&quot;, -apple-system, BlinkMacSystemFont, &quot;Segoe UI&quot;, sans-serif;font-size:16px;font-weight:400;text-anchor:start;dominant-baseline:auto"/>
    <path d="M92,48 Q114,57 120,78 Q114,99 92,108 Q70,99 64,78 Q70,57 92,48Z" fill="none" stroke="#4a7a4a" stroke-width="0.8" mask="url(#imagine-text-gaps-bx2v4y)" style="fill:none;stroke:rgb(74, 122, 74);color:rgb(255, 255, 255);stroke-width:0.8px;stroke-linecap:butt;stroke-linejoin:miter;opacity:1;font-family:&quot;Anthropic Sans&quot;, -apple-system, BlinkMacSystemFont, &quot;Segoe UI&quot;, sans-serif;font-size:16px;font-weight:400;text-anchor:start;dominant-baseline:auto"/>
    <circle cx="92" cy="78" r="6" fill="#1a3a1a" style="fill:rgb(26, 58, 26);stroke:none;color:rgb(255, 255, 255);stroke-width:1px;stroke-linecap:butt;stroke-linejoin:miter;opacity:1;font-family:&quot;Anthropic Sans&quot;, -apple-system, BlinkMacSystemFont, &quot;Segoe UI&quot;, sans-serif;font-size:16px;font-weight:400;text-anchor:start;dominant-baseline:auto"/>
    <circle cx="86" cy="74" r="1.5" fill="#ff2200" style="fill:rgb(255, 34, 0);stroke:none;color:rgb(255, 255, 255);stroke-width:1px;stroke-linecap:butt;stroke-linejoin:miter;opacity:1;font-family:&quot;Anthropic Sans&quot;, -apple-system, BlinkMacSystemFont, &quot;Segoe UI&quot;, sans-serif;font-size:16px;font-weight:400;text-anchor:start;dominant-baseline:auto"/>
    <circle cx="98" cy="74" r="1.5" fill="#ff2200" style="fill:rgb(255, 34, 0);stroke:none;color:rgb(255, 255, 255);stroke-width:1px;stroke-linecap:butt;stroke-linejoin:miter;opacity:1;font-family:&quot;Anthropic Sans&quot;, -apple-system, BlinkMacSystemFont, &quot;Segoe UI&quot;, sans-serif;font-size:16px;font-weight:400;text-anchor:start;dominant-baseline:auto"/>
    <text x="92" y="128" text-anchor="middle" font-family="sans-serif" font-size="15" fill="#1a5c1a" font-weight="bold" style="fill:rgb(26, 92, 26);stroke:none;color:rgb(255, 255, 255);stroke-width:1px;stroke-linecap:butt;stroke-linejoin:miter;opacity:1;font-family:sans-serif;font-size:15px;font-weight:700;text-anchor:middle;dominant-baseline:auto">Bhai, Kya Likha!</text>
    <text x="92" y="148" text-anchor="middle" font-family="sans-serif" font-size="12" fill="#1a3a1a" style="fill:rgb(26, 58, 26);stroke:none;color:rgb(255, 255, 255);stroke-width:1px;stroke-linecap:butt;stroke-linejoin:miter;opacity:1;font-family:sans-serif;font-size:12px;font-weight:400;text-anchor:middle;dominant-baseline:auto">Raat ko neend nahi aayi</text>
  </g>
</svg>
