<svg xmlns="http://www.w3.org/2000/svg" viewBox="0 0 190 190" width="190" height="190" role="img">
  <defs><mask id="imagine-text-gaps-bx2v4y" maskUnits="userSpaceOnUse"><rect x="0" y="0" width="680" height="1100" fill="white"/><rect x="54.84375" y="104.375" width="78.3125" height="21.375" fill="black" rx="2"/><rect x="55.390625" y="127.109375" width="77.21875" height="17.890625" fill="black" rx="2"/><rect x="62.59375" y="132.375" width="62.8125" height="21.375" fill="black" rx="2"/><rect x="51.703125" y="153.109375" width="84.59375" height="17.890625" fill="black" rx="2"/><rect x="48.015625" y="149.375" width="87.96875" height="21.375" fill="black" rx="2"/><rect x="48.890625" y="171.328125" width="86.21875" height="16.421875" fill="black" rx="2"/><rect x="47.03125" y="116.375" width="93.9375" height="21.375" fill="black" rx="2"/><rect x="55.90625" y="137.109375" width="76.1875" height="17.890625" fill="black" rx="2"/><rect x="46.546875" y="136.375" width="94.90625" height="21.375" fill="black" rx="2"/><rect x="47.234375" y="157.109375" width="93.53125" height="17.890625" fill="black" rx="2"/><rect x="29.640625" y="112.078125" width="124.71875" height="21.375" fill="black" rx="2"/><rect x="23.28125" y="134.859375" width="137.4375" height="17.90625" fill="black" rx="2"/><rect x="37.078125" y="120.328125" width="113.84375" height="19.90625" fill="black" rx="2"/><rect x="32.8125" y="141.109375" width="122.375" height="16.421875" fill="black" rx="2"/><rect x="42.546875" y="125.328125" width="102.90625" height="19.90625" fill="black" rx="2"/><rect x="38.625" y="146.109375" width="110.75" height="16.421875" fill="black" rx="2"/><rect x="21.9375" y="115.328125" width="144.125" height="19.90625" fill="black" rx="2"/><rect x="26.40625" y="138.109375" width="135.1875" height="16.421875" fill="black" rx="2"/><rect x="40.203125" y="140.328125" width="107.59375" height="19.90625" fill="black" rx="2"/><rect x="25.78125" y="161.109375" width="136.4375" height="16.421875" fill="black" rx="2"/><rect x="42.15625" y="123.328125" width="103.6875" height="19.90625" fill="black" rx="2"/><rect x="37.71875" y="144.109375" width="112.5625" height="16.421875" fill="black" rx="2"/><rect x="46.421875" y="105.328125" width="95.15625" height="19.90625" fill="black" rx="2"/><rect x="38.953125" y="128.109375" width="110.09375" height="16.421875" fill="black" rx="2"/><rect x="80" y="50.15625" width="28" height="26.84375" fill="black" rx="2"/><rect x="70.984375" y="74.640625" width="46.03125" height="14.4375" fill="black" rx="2"/><rect x="50.25" y="144.09375" width="87.5" height="18.90625" fill="black" rx="2"/><rect x="38.859375" y="162.875" width="110.28125" height="15.4375" fill="black" rx="2"/><rect x="40.140625" y="124.09375" width="107.71875" height="18.90625" fill="black" rx="2"/><rect x="46.359375" y="144.875" width="95.28125" height="15.4375" fill="black" rx="2"/><rect x="40.15625" y="118.09375" width="107.6875" height="18.90625" fill="black" rx="2"/><rect x="35.796875" y="138.875" width="116.40625" height="15.4375" fill="black" rx="2"/></mask></defs>
  <g>
<circle cx="94" cy="94" r="88" fill="#fff8f0" stroke="#1a1a1a" stroke-width="3.5" style="fill:rgb(255, 248, 240);stroke:rgb(26, 26, 26);color:rgb(255, 255, 255);stroke-width:3.5px;stroke-linecap:butt;stroke-linejoin:miter;opacity:1;font-family:&quot;Anthropic Sans&quot;, -apple-system, BlinkMacSystemFont, &quot;Segoe UI&quot;, sans-serif;font-size:16px;font-weight:400;text-anchor:start;dominant-baseline:auto"/>
    <!-- raven -->
    <ellipse cx="94" cy="80" rx="28" ry="22" fill="#1a1a1a" style="fill:rgb(26, 26, 26);stroke:none;color:rgb(255, 255, 255);stroke-width:1px;stroke-linecap:butt;stroke-linejoin:miter;opacity:1;font-family:&quot;Anthropic Sans&quot;, -apple-system, BlinkMacSystemFont, &quot;Segoe UI&quot;, sans-serif;font-size:16px;font-weight:400;text-anchor:start;dominant-baseline:auto"/>
    <ellipse cx="94" cy="65" rx="18" ry="15" fill="#1a1a1a" style="fill:rgb(26, 26, 26);stroke:none;color:rgb(255, 255, 255);stroke-width:1px;stroke-linecap:butt;stroke-linejoin:miter;opacity:1;font-family:&quot;Anthropic Sans&quot;, -apple-system, BlinkMacSystemFont, &quot;Segoe UI&quot;, sans-serif;font-size:16px;font-weight:400;text-anchor:start;dominant-baseline:auto"/>
    <path d="M76,80 Q55,85 48,95 Q68,88 76,90Z" fill="#1a1a1a" style="fill:rgb(26, 26, 26);stroke:none;color:rgb(255, 255, 255);stroke-width:1px;stroke-linecap:butt;stroke-linejoin:miter;opacity:1;font-family:&quot;Anthropic Sans&quot;, -apple-system, BlinkMacSystemFont, &quot;Segoe UI&quot;, sans-serif;font-size:16px;font-weight:400;text-anchor:start;dominant-baseline:auto"/>
    <path d="M112,80 Q133,85 140,95 Q120,88 112,90Z" fill="#1a1a1a" style="fill:rgb(26, 26, 26);stroke:none;color:rgb(255, 255, 255);stroke-width:1px;stroke-linecap:butt;stroke-linejoin:miter;opacity:1;font-family:&quot;Anthropic Sans&quot;, -apple-system, BlinkMacSystemFont, &quot;Segoe UI&quot;, sans-serif;font-size:16px;font-weight:400;text-anchor:start;dominant-baseline:auto"/>
    <path d="M85,65 Q80,58 88,60Z" fill="#555" style="fill:rgb(85, 85, 85);stroke:none;color:rgb(255, 255, 255);stroke-width:1px;stroke-linecap:butt;stroke-linejoin:miter;opacity:1;font-family:&quot;Anthropic Sans&quot;, -apple-system, BlinkMacSystemFont, &quot;Segoe UI&quot;, sans-serif;font-size:16px;font-weight:400;text-anchor:start;dominant-baseline:auto"/>
    <ellipse cx="88" cy="63" rx="3" ry="3" fill="#ff3300" style="fill:rgb(255, 51, 0);stroke:none;color:rgb(255, 255, 255);stroke-width:1px;stroke-linecap:butt;stroke-linejoin:miter;opacity:1;font-family:&quot;Anthropic Sans&quot;, -apple-system, BlinkMacSystemFont, &quot;Segoe UI&quot;, sans-serif;font-size:16px;font-weight:400;text-anchor:start;dominant-baseline:auto"/>
    <ellipse cx="87" cy="62" rx="1" ry="1" fill="#1a1a1a" style="fill:rgb(26, 26, 26);stroke:none;color:rgb(255, 255, 255);stroke-width:1px;stroke-linecap:butt;stroke-linejoin:miter;opacity:1;font-family:&quot;Anthropic Sans&quot;, -apple-system, BlinkMacSystemFont, &quot;Segoe UI&quot;, sans-serif;font-size:16px;font-weight:400;text-anchor:start;dominant-baseline:auto"/>
    <text x="94" y="120" text-anchor="middle" font-family="sans-serif" font-size="14" fill="#1a1a1a" font-weight="bold" style="fill:rgb(26, 26, 26);stroke:none;color:rgb(255, 255, 255);stroke-width:1px;stroke-linecap:butt;stroke-linejoin:miter;opacity:1;font-family:sans-serif;font-size:14px;font-weight:700;text-anchor:middle;dominant-baseline:auto">Dark Genius!</text>
    <text x="94" y="140" text-anchor="middle" font-family="sans-serif" font-size="11" fill="#333" style="fill:rgb(51, 51, 51);stroke:none;color:rgb(255, 255, 255);stroke-width:1px;stroke-linecap:butt;stroke-linejoin:miter;opacity:1;font-family:sans-serif;font-size:11px;font-weight:400;text-anchor:middle;dominant-baseline:auto">This story haunts me</text>
  </g>
</svg>
